<svg width="254" height="24" viewBox="0 0 254 24" fill="none" xmlns="http://www.w3.org/2000/svg">
<g clip-path="url(#clip0_604_19)">
<path d="M32.389 16.2H38.429V19H28.509V16.4L34.509 7.76H28.509V4.96H38.429V7.56L32.389 16.2ZM39.9831 13.4C39.9831 12.2533 40.1964 11.2467 40.6231 10.38C41.0631 9.51333 41.6564 8.84667 42.4031 8.38C43.1498 7.91333 43.9831 7.68 44.9031 7.68C45.6898 7.68 46.3764 7.84 46.9631 8.16C47.5631 8.48 48.0231 8.9 48.3431 9.42V7.84H51.7631V19H48.3431V17.42C48.0098 17.94 47.5431 18.36 46.9431 18.68C46.3564 19 45.6698 19.16 44.8831 19.16C43.9764 19.16 43.1498 18.9267 42.4031 18.46C41.6564 17.98 41.0631 17.3067 40.6231 16.44C40.1964 15.56 39.9831 14.5467 39.9831 13.4ZM48.3431 13.42C48.3431 12.5667 48.1031 11.8933 47.6231 11.4C47.1564 10.9067 46.5831 10.66 45.9031 10.66C45.2231 10.66 44.6431 10.9067 44.1631 11.4C43.6964 11.88 43.4631 12.5467 43.4631 13.4C43.4631 14.2533 43.6964 14.9333 44.1631 15.44C44.6431 15.9333 45.2231 16.18 45.9031 16.18C46.5831 16.18 47.1564 15.9333 47.6231 15.44C48.1031 14.9467 48.3431 14.2733 48.3431 13.42ZM53.5573 13.44C53.5573 12.3333 53.784 11.3467 54.2373 10.48C54.704 9.61333 55.324 8.94 56.0973 8.46C56.884 7.96667 57.7373 7.72 58.6573 7.72C59.364 7.72 59.9973 7.84667 60.5573 8.1C61.1173 8.34 61.5706 8.68 61.9173 9.12V7.84H65.3373V24.32H61.9173V17.6C61.5306 18.0667 61.0573 18.44 60.4973 18.72C59.9506 19 59.324 19.14 58.6173 19.14C57.7106 19.14 56.8706 18.9 56.0973 18.42C55.324 17.94 54.704 17.2667 54.2373 16.4C53.784 15.5333 53.5573 14.5467 53.5573 13.44ZM61.9173 13.42C61.9173 12.82 61.7973 12.32 61.5573 11.92C61.3306 11.5067 61.0306 11.2 60.6573 11C60.284 10.7867 59.8906 10.68 59.4773 10.68C59.0773 10.68 58.6906 10.7867 58.3173 11C57.944 11.2 57.6373 11.5067 57.3973 11.92C57.1573 12.3333 57.0373 12.84 57.0373 13.44C57.0373 14.04 57.1573 14.5467 57.3973 14.96C57.6373 15.36 57.944 15.6667 58.3173 15.88C58.6906 16.08 59.0773 16.18 59.4773 16.18C59.8773 16.18 60.264 16.08 60.6373 15.88C61.024 15.6667 61.3306 15.3533 61.5573 14.94C61.7973 14.5267 61.9173 14.02 61.9173 13.42ZM78.8315 7.84V19H75.4115V17.48C75.0649 17.9733 74.5915 18.3733 73.9915 18.68C73.4049 18.9733 72.7515 19.12 72.0315 19.12C71.1782 19.12 70.4249 18.9333 69.7715 18.56C69.1182 18.1733 68.6115 17.62 68.2515 16.9C67.8915 16.18 67.7115 15.3333 67.7115 14.36V7.84H71.1115V13.9C71.1115 14.6467 71.3049 15.2267 71.6915 15.64C72.0782 16.0533 72.5982 16.26 73.2515 16.26C73.9182 16.26 74.4449 16.0533 74.8315 15.64C75.2182 15.2267 75.4115 14.6467 75.4115 13.9V7.84H78.8315ZM80.6081 13.4C80.6081 12.2533 80.8214 11.2467 81.2481 10.38C81.6881 9.51333 82.2814 8.84667 83.0281 8.38C83.7748 7.91333 84.6081 7.68 85.5281 7.68C86.3148 7.68 87.0014 7.84 87.5881 8.16C88.1881 8.48 88.6481 8.9 88.9681 9.42V7.84H92.3881V19H88.9681V17.42C88.6348 17.94 88.1681 18.36 87.5681 18.68C86.9814 19 86.2948 19.16 85.5081 19.16C84.6014 19.16 83.7748 18.9267 83.0281 18.46C82.2814 17.98 81.6881 17.3067 81.2481 16.44C80.8214 15.56 80.6081 14.5467 80.6081 13.4ZM88.9681 13.42C88.9681 12.5667 88.7281 11.8933 88.2481 11.4C87.7814 10.9067 87.2081 10.66 86.5281 10.66C85.8481 10.66 85.2681 10.9067 84.7881 11.4C84.3214 11.88 84.0881 12.5467 84.0881 13.4C84.0881 14.2533 84.3214 14.9333 84.7881 15.44C85.2681 15.9333 85.8481 16.18 86.5281 16.18C87.2081 16.18 87.7814 15.9333 88.2481 15.44C88.7281 14.9467 88.9681 14.2733 88.9681 13.42Z" fill="white"/>
<path d="M102.88 5.06C104.4 5.06 105.713 5.34667 106.82 5.92C107.94 6.48 108.793 7.28667 109.38 8.34C109.98 9.39333 110.28 10.6333 110.28 12.06C110.28 13.4867 109.98 14.7267 109.38 15.78C108.793 16.82 107.94 17.62 106.82 18.18C105.713 18.7267 104.4 19 102.88 19H98.54V5.06H102.88ZM102.88 17.5C104.68 17.5 106.053 17.0267 107 16.08C107.947 15.12 108.42 13.78 108.42 12.06C108.42 10.3267 107.94 8.97333 106.98 8C106.033 7.02667 104.667 6.54 102.88 6.54H100.36V17.5H102.88ZM117.461 19.18C116.434 19.18 115.501 18.9467 114.661 18.48C113.834 18.0133 113.181 17.3533 112.701 16.5C112.234 15.6333 112.001 14.6333 112.001 13.5C112.001 12.38 112.241 11.3933 112.721 10.54C113.214 9.67333 113.881 9.01333 114.721 8.56C115.561 8.09333 116.501 7.86 117.541 7.86C118.581 7.86 119.521 8.09333 120.361 8.56C121.201 9.01333 121.861 9.66667 122.341 10.52C122.834 11.3733 123.081 12.3667 123.081 13.5C123.081 14.6333 122.827 15.6333 122.321 16.5C121.827 17.3533 121.154 18.0133 120.301 18.48C119.447 18.9467 118.501 19.18 117.461 19.18ZM117.461 17.58C118.114 17.58 118.727 17.4267 119.301 17.12C119.874 16.8133 120.334 16.3533 120.681 15.74C121.041 15.1267 121.221 14.38 121.221 13.5C121.221 12.62 121.047 11.8733 120.701 11.26C120.354 10.6467 119.901 10.1933 119.341 9.9C118.781 9.59333 118.174 9.44 117.521 9.44C116.854 9.44 116.241 9.59333 115.681 9.9C115.134 10.1933 114.694 10.6467 114.361 11.26C114.027 11.8733 113.861 12.62 113.861 13.5C113.861 14.3933 114.021 15.1467 114.341 15.76C114.674 16.3733 115.114 16.8333 115.661 17.14C116.207 17.4333 116.807 17.58 117.461 17.58ZM124.794 13.5C124.794 12.3667 125.02 11.38 125.474 10.54C125.927 9.68667 126.554 9.02667 127.354 8.56C128.167 8.09333 129.094 7.86 130.134 7.86C131.48 7.86 132.587 8.18667 133.454 8.84C134.334 9.49333 134.914 10.4 135.194 11.56H133.234C133.047 10.8933 132.68 10.3667 132.134 9.98C131.6 9.59333 130.934 9.4 130.134 9.4C129.094 9.4 128.254 9.76 127.614 10.48C126.974 11.1867 126.654 12.1933 126.654 13.5C126.654 14.82 126.974 15.84 127.614 16.56C128.254 17.28 129.094 17.64 130.134 17.64C130.934 17.64 131.6 17.4533 132.134 17.08C132.667 16.7067 133.034 16.1733 133.234 15.48H135.194C134.9 16.6 134.314 17.5 133.434 18.18C132.554 18.8467 131.454 19.18 130.134 19.18C129.094 19.18 128.167 18.9467 127.354 18.48C126.554 18.0133 125.927 17.3533 125.474 16.5C125.02 15.6467 124.794 14.6467 124.794 13.5ZM147.342 8.04V19H145.522V17.38C145.175 17.94 144.689 18.38 144.062 18.7C143.449 19.0067 142.769 19.16 142.022 19.16C141.169 19.16 140.402 18.9867 139.722 18.64C139.042 18.28 138.502 17.7467 138.102 17.04C137.715 16.3333 137.522 15.4733 137.522 14.46V8.04H139.322V14.22C139.322 15.3 139.595 16.1333 140.142 16.72C140.689 17.2933 141.435 17.58 142.382 17.58C143.355 17.58 144.122 17.28 144.682 16.68C145.242 16.08 145.522 15.2067 145.522 14.06V8.04H147.342ZM163.595 7.84C164.448 7.84 165.208 8.02 165.875 8.38C166.542 8.72667 167.068 9.25333 167.455 9.96C167.842 10.6667 168.035 11.5267 168.035 12.54V19H166.235V12.8C166.235 11.7067 165.962 10.8733 165.415 10.3C164.882 9.71333 164.155 9.42 163.235 9.42C162.288 9.42 161.535 9.72667 160.975 10.34C160.415 10.94 160.135 11.8133 160.135 12.96V19H158.335V12.8C158.335 11.7067 158.062 10.8733 157.515 10.3C156.982 9.71333 156.255 9.42 155.335 9.42C154.388 9.42 153.635 9.72667 153.075 10.34C152.515 10.94 152.235 11.8133 152.235 12.96V19H150.415V8.04H152.235V9.62C152.595 9.04667 153.075 8.60667 153.675 8.3C154.288 7.99333 154.962 7.84 155.695 7.84C156.615 7.84 157.428 8.04667 158.135 8.46C158.842 8.87333 159.368 9.48 159.715 10.28C160.022 9.50667 160.528 8.90667 161.235 8.48C161.942 8.05333 162.728 7.84 163.595 7.84ZM181.02 13.1C181.02 13.4467 181 13.8133 180.96 14.2H172.2C172.267 15.28 172.634 16.1267 173.3 16.74C173.98 17.34 174.8 17.64 175.76 17.64C176.547 17.64 177.2 17.46 177.72 17.1C178.254 16.7267 178.627 16.2333 178.84 15.62H180.8C180.507 16.6733 179.92 17.5333 179.04 18.2C178.16 18.8533 177.067 19.18 175.76 19.18C174.72 19.18 173.787 18.9467 172.96 18.48C172.147 18.0133 171.507 17.3533 171.04 16.5C170.574 15.6333 170.34 14.6333 170.34 13.5C170.34 12.3667 170.567 11.3733 171.02 10.52C171.474 9.66667 172.107 9.01333 172.92 8.56C173.747 8.09333 174.694 7.86 175.76 7.86C176.8 7.86 177.72 8.08667 178.52 8.54C179.32 8.99333 179.934 9.62 180.36 10.42C180.8 11.2067 181.02 12.1 181.02 13.1ZM179.14 12.72C179.14 12.0267 178.987 11.4333 178.68 10.94C178.374 10.4333 177.954 10.0533 177.42 9.8C176.9 9.53333 176.32 9.4 175.68 9.4C174.76 9.4 173.974 9.69333 173.32 10.28C172.68 10.8667 172.314 11.68 172.22 12.72H179.14ZM188.763 7.84C190.096 7.84 191.176 8.24667 192.003 9.06C192.829 9.86 193.243 11.02 193.243 12.54V19H191.443V12.8C191.443 11.7067 191.169 10.8733 190.623 10.3C190.076 9.71333 189.329 9.42 188.383 9.42C187.423 9.42 186.656 9.72 186.083 10.32C185.523 10.92 185.243 11.7933 185.243 12.94V19H183.423V8.04H185.243V9.6C185.603 9.04 186.089 8.60667 186.703 8.3C187.329 7.99333 188.016 7.84 188.763 7.84ZM198.436 9.54V16C198.436 16.5333 198.549 16.9133 198.776 17.14C199.002 17.3533 199.396 17.46 199.956 17.46H201.296V19H199.656C198.642 19 197.882 18.7667 197.376 18.3C196.869 17.8333 196.616 17.0667 196.616 16V9.54H195.196V8.04H196.616V5.28H198.436V8.04H201.296V9.54H198.436ZM202.821 13.48C202.821 12.36 203.048 11.38 203.501 10.54C203.954 9.68667 204.574 9.02667 205.361 8.56C206.161 8.09333 207.048 7.86 208.021 7.86C208.981 7.86 209.814 8.06667 210.521 8.48C211.228 8.89333 211.754 9.41333 212.101 10.04V8.04H213.941V19H212.101V16.96C211.741 17.6 211.201 18.1333 210.481 18.56C209.774 18.9733 208.948 19.18 208.001 19.18C207.028 19.18 206.148 18.94 205.361 18.46C204.574 17.98 203.954 17.3067 203.501 16.44C203.048 15.5733 202.821 14.5867 202.821 13.48ZM212.101 13.5C212.101 12.6733 211.934 11.9533 211.601 11.34C211.268 10.7267 210.814 10.26 210.241 9.94C209.681 9.60667 209.061 9.44 208.381 9.44C207.701 9.44 207.081 9.6 206.521 9.92C205.961 10.24 205.514 10.7067 205.181 11.32C204.848 11.9333 204.681 12.6533 204.681 13.48C204.681 14.32 204.848 15.0533 205.181 15.68C205.514 16.2933 205.961 16.7667 206.521 17.1C207.081 17.42 207.701 17.58 208.381 17.58C209.061 17.58 209.681 17.42 210.241 17.1C210.814 16.7667 211.268 16.2933 211.601 15.68C211.934 15.0533 212.101 14.3267 212.101 13.5ZM219.237 9.54V16C219.237 16.5333 219.35 16.9133 219.577 17.14C219.803 17.3533 220.197 17.46 220.757 17.46H222.097V19H220.457C219.443 19 218.683 18.7667 218.177 18.3C217.67 17.8333 217.417 17.0667 217.417 16V9.54H215.997V8.04H217.417V5.28H219.237V8.04H222.097V9.54H219.237ZM225.242 6.26C224.895 6.26 224.602 6.14 224.362 5.9C224.122 5.66 224.002 5.36667 224.002 5.02C224.002 4.67333 224.122 4.38 224.362 4.14C224.602 3.9 224.895 3.78 225.242 3.78C225.575 3.78 225.855 3.9 226.082 4.14C226.322 4.38 226.442 4.67333 226.442 5.02C226.442 5.36667 226.322 5.66 226.082 5.9C225.855 6.14 225.575 6.26 225.242 6.26ZM226.122 8.04V19H224.302V8.04H226.122ZM234.004 19.18C232.977 19.18 232.044 18.9467 231.204 18.48C230.377 18.0133 229.724 17.3533 229.244 16.5C228.777 15.6333 228.544 14.6333 228.544 13.5C228.544 12.38 228.784 11.3933 229.264 10.54C229.757 9.67333 230.424 9.01333 231.264 8.56C232.104 8.09333 233.044 7.86 234.084 7.86C235.124 7.86 236.064 8.09333 236.904 8.56C237.744 9.01333 238.404 9.66667 238.884 10.52C239.377 11.3733 239.624 12.3667 239.624 13.5C239.624 14.6333 239.37 15.6333 238.864 16.5C238.37 17.3533 237.697 18.0133 236.844 18.48C235.99 18.9467 235.044 19.18 234.004 19.18ZM234.004 17.58C234.657 17.58 235.27 17.4267 235.844 17.12C236.417 16.8133 236.877 16.3533 237.224 15.74C237.584 15.1267 237.764 14.38 237.764 13.5C237.764 12.62 237.59 11.8733 237.244 11.26C236.897 10.6467 236.444 10.1933 235.884 9.9C235.324 9.59333 234.717 9.44 234.064 9.44C233.397 9.44 232.784 9.59333 232.224 9.9C231.677 10.1933 231.237 10.6467 230.904 11.26C230.57 11.8733 230.404 12.62 230.404 13.5C230.404 14.3933 230.564 15.1467 230.884 15.76C231.217 16.3733 231.657 16.8333 232.204 17.14C232.75 17.4333 233.35 17.58 234.004 17.58ZM247.357 7.84C248.69 7.84 249.77 8.24667 250.597 9.06C251.423 9.86 251.837 11.02 251.837 12.54V19H250.037V12.8C250.037 11.7067 249.763 10.8733 249.217 10.3C248.67 9.71333 247.923 9.42 246.977 9.42C246.017 9.42 245.25 9.72 244.677 10.32C244.117 10.92 243.837 11.7933 243.837 12.94V19H242.017V8.04H243.837V9.6C244.197 9.04 244.683 8.60667 245.297 8.3C245.923 7.99333 246.61 7.84 247.357 7.84Z" fill="#6D6B5E"/>
<path d="M15.1531 0L11.6375 4.05882L0 0H15.1531Z" fill="#757474"/>
<path d="M13.3432 8.96461H17.8999L4.61988 24.2563H0L10.3163 12.3547H6.31227L13.5154 4.0586L17.0215 0H21.0903L13.3432 8.96461Z" fill="#FFD400"/>
<path d="M10.076 20.1975L6.55737 24.2563H21.0902L10.076 20.1975Z" fill="#757474"/>
</g>
<defs>
<clipPath id="clip0_604_19">
<rect width="254" height="24" fill="white"/>
</clipPath>
</defs>
</svg>
